<svg width="16" height="17" viewBox="0 0 16 17" fill="none" xmlns="http://www.w3.org/2000/svg">
<path d="M8.00374 6.45271L2.45808 0.739456L2.39965 0.679257L2.32476 0.641427C2.11071 0.533288 1.8487 0.5 1.63647 0.5C1.42423 0.5 1.16223 0.533291 0.948176 0.641412L0.948147 0.641427C0.712924 0.760262 0.615572 0.974589 0.576434 1.12194C0.536641 1.27175 0.535364 1.42496 0.544846 1.54947C0.563603 1.79577 0.635974 2.0639 0.725462 2.24476L0.761332 2.31726L0.818231 2.37475L6.3711 7.98541L0.818231 13.5961L1.17361 13.9478L0.81823 13.5961C0.41249 14.006 0.39472 14.6315 0.76501 15.0603C1.03176 15.5043 1.51173 15.5009 1.62523 15.5001C1.62944 15.5 1.63315 15.5 1.63632 15.5L1.64251 15.5C1.70034 15.5 1.82219 15.5001 1.95083 15.4784C2.07291 15.4579 2.28595 15.4051 2.45441 15.2348L8.00374 6.45271ZM8.00374 6.45271L13.5458 0.85294C13.973 0.421283 14.6394 0.421391 15.0665 0.852901C15.4909 1.28161 15.4908 1.94598 15.0665 2.37469L9.51364 7.98536L15.1817 13.713C15.1818 13.713 15.1818 13.713 15.1818 13.713C15.6061 14.1417 15.6061 14.8061 15.1818 15.2348C15.0524 15.3657 14.9045 15.4417 14.7376 15.4755C14.6144 15.5004 14.481 15.5002 14.3845 15.5C14.3774 15.5 14.3704 15.5 14.3637 15.5C14.3511 15.5 14.3379 15.5001 14.3241 15.5002C14.1279 15.5017 13.8121 15.5041 13.5456 15.2348L8 9.63148L2.45479 15.2344L8.00374 6.45271Z" fill="#717680" stroke="#717680"/>
</svg>
