<svg width="24" height="25" viewBox="0 0 24 25" fill="none" xmlns="http://www.w3.org/2000/svg">
<path fill-rule="evenodd" clip-rule="evenodd" d="M21.9733 7.39621L21.2284 6.10381C20.5985 5.01026 19.2021 4.63301 18.107 5.26048C17.5858 5.56755 16.9638 5.65466 16.3782 5.50263C15.7926 5.35058 15.2916 4.97188 14.9856 4.45C14.7887 4.11829 14.6829 3.74048 14.6789 3.35476C14.6967 2.73636 14.4634 2.13711 14.0321 1.69351C13.6009 1.24991 13.0085 0.999737 12.3899 1H10.8894C10.2834 0.999988 9.70219 1.24151 9.27466 1.67111C8.84712 2.10071 8.60839 2.68296 8.61131 3.28905C8.59335 4.54041 7.57374 5.54537 6.32226 5.54524C5.93654 5.54124 5.55873 5.43546 5.22701 5.23858C4.13196 4.61112 2.73565 4.98836 2.10558 6.08192L1.30606 7.39621C0.676745 8.48839 1.04886 9.88382 2.13844 10.5176C2.84668 10.9265 3.28298 11.6822 3.28298 12.5001C3.28298 13.3178 2.84668 14.0735 2.13844 14.4824C1.05025 15.1119 0.677727 16.504 1.30606 17.5928L2.06178 18.8962C2.35699 19.4289 2.8523 19.822 3.43812 19.9884C4.02394 20.155 4.65196 20.0812 5.1832 19.7834C5.70545 19.4786 6.32779 19.3952 6.91188 19.5515C7.49598 19.7077 7.99345 20.0909 8.29368 20.6158C8.49056 20.9475 8.59635 21.3252 8.60036 21.711C8.60036 22.9752 9.62525 24 10.8894 24H12.3899C13.6498 24 14.6729 22.9819 14.6789 21.7219C14.676 21.1139 14.9163 20.53 15.3462 20.1001C15.7761 19.6702 16.36 19.43 16.968 19.4329C17.3528 19.4432 17.729 19.5486 18.0632 19.7396C19.1554 20.3688 20.5508 19.9967 21.1846 18.9071L21.9733 17.5928C22.2785 17.069 22.3623 16.445 22.206 15.8592C22.0497 15.2732 21.6664 14.7738 21.1408 14.4714C20.6153 14.1691 20.232 13.6697 20.0757 13.0838C19.9194 12.4979 20.0033 11.8739 20.3085 11.3501C20.5069 11.0034 20.7943 10.7161 21.1408 10.5176C22.2238 9.88416 22.5951 8.49688 21.9733 7.40715V7.39621Z" stroke="#717680" stroke-width="1.5" stroke-linecap="round" stroke-linejoin="round"/>
<path d="M11.6445 15.6543C13.3866 15.6543 14.7988 14.2421 14.7988 12.5C14.7988 10.7579 13.3866 9.3457 11.6445 9.3457C9.90246 9.3457 8.49023 10.7579 8.49023 12.5C8.49023 14.2421 9.90246 15.6543 11.6445 15.6543Z" stroke="#717680" stroke-width="1.5" stroke-linecap="round" stroke-linejoin="round"/>
</svg>
