<svg width="22" height="17" viewBox="0 0 22 17" fill="none" xmlns="http://www.w3.org/2000/svg">
<path d="M17.1377 7.64673C18.5327 7.45073 19.6067 6.25473 19.6097 4.80573C19.6097 3.37773 18.5687 2.19373 17.2037 1.96973" stroke="#ffffff" stroke-width="1.2" stroke-linecap="round" stroke-linejoin="round"/>
<path d="M18.9785 11.0005C20.3295 11.2025 21.2725 11.6755 21.2725 12.6505C21.2725 13.3215 20.8285 13.7575 20.1105 14.0315" stroke="#ffffff" stroke-width="1.2" stroke-linecap="round" stroke-linejoin="round"/>
<path fill-rule="evenodd" clip-rule="evenodd" d="M11.1367 11.4138C7.92273 11.4138 5.17773 11.9008 5.17773 13.8458C5.17773 15.7898 7.90573 16.2908 11.1367 16.2908C14.3507 16.2908 17.0947 15.8088 17.0947 13.8628C17.0947 11.9168 14.3677 11.4138 11.1367 11.4138Z" stroke="#ffffff" stroke-width="1.2" stroke-linecap="round" stroke-linejoin="round"/>
<path fill-rule="evenodd" clip-rule="evenodd" d="M11.1369 8.638C13.2459 8.638 14.9559 6.929 14.9559 4.819C14.9559 2.71 13.2459 1 11.1369 1C9.0279 1 7.3179 2.71 7.3179 4.819C7.3099 6.921 9.0069 8.631 11.1089 8.638H11.1369Z" stroke="#ffffff" stroke-width="1.2" stroke-linecap="round" stroke-linejoin="round"/>
<path d="M5.1346 7.64673C3.7386 7.45073 2.6656 6.25473 2.6626 4.80573C2.6626 3.37773 3.7036 2.19373 5.0686 1.96973" stroke="#ffffff" stroke-width="1.2" stroke-linecap="round" stroke-linejoin="round"/>
<path d="M3.294 11.0005C1.943 11.2025 1 11.6755 1 12.6505C1 13.3215 1.444 13.7575 2.162 14.0315" stroke="#ffffff" stroke-width="1.2" stroke-linecap="round" stroke-linejoin="round"/>
</svg>
