<svg width="22" height="22" viewBox="0 0 22 22" fill="none" xmlns="http://www.w3.org/2000/svg">
<path d="M20.3773 6.60864C20.3978 6.65603 20.4199 6.70881 20.443 6.76604C20.5517 7.03471 20.6782 7.3855 20.7742 7.69935C21.3226 9.49052 21.3587 11.6261 20.8711 13.4381C19.6294 18.0531 15.4875 21.2321 10.7078 21.2387C5.66639 21.2456 1.41117 17.7533 0.358225 12.7353L0.144807 12.7801L0.358225 12.7353C0.238121 12.163 0.218066 11.8979 0.218066 10.7244C0.218066 9.55093 0.238121 9.28587 0.358225 8.71351L0.144807 8.66873L0.358225 8.71351C1.05052 5.41432 3.08303 2.76743 6.06577 1.27752L5.97459 1.09497L6.06577 1.27752C7.04727 0.787238 8.47763 0.362514 9.51634 0.251778C10.1072 0.188825 11.5886 0.218208 12.1847 0.304911L12.1847 0.304914C13.7364 0.53051 15.1979 1.08621 16.4535 1.92635C16.7199 2.10459 16.8856 2.21751 16.9871 2.29271C16.9486 2.32391 16.9038 2.35992 16.8538 2.39978C16.6858 2.53379 16.4626 2.70881 16.235 2.8855C16.0075 3.06217 15.7762 3.24001 15.5918 3.37962C15.4995 3.44948 15.4195 3.50937 15.3579 3.55462C15.3385 3.56886 15.3211 3.58149 15.3059 3.5924C15.2937 3.58794 15.2795 3.58243 15.2633 3.57574C15.1826 3.54236 15.075 3.48875 14.9624 3.42295L14.9624 3.42295C12.022 1.70469 8.34376 1.92912 5.6039 3.99152C3.91583 5.26216 2.79254 7.0806 2.37976 9.20489C2.30297 9.59999 2.26634 10.1671 2.26634 10.7244C2.26634 11.2817 2.30297 11.8488 2.37976 12.2439C3.05741 15.7309 5.69176 18.3669 9.17604 19.0438C9.57331 19.121 10.1409 19.158 10.6986 19.1581C11.2562 19.1583 11.8233 19.1216 12.2195 19.0446C15.7065 18.3669 18.3424 15.7326 19.0193 12.2483C19.1857 11.3922 19.1715 9.97623 18.9884 9.11108L18.8721 8.56185L19.6753 7.51028C19.9123 7.19998 20.1328 6.9163 20.2969 6.70935C20.3256 6.67326 20.3524 6.63961 20.3773 6.60864Z" fill="#5D5A6A" stroke="white" stroke-width="0.436132"/>
<path fill-rule="evenodd" clip-rule="evenodd" d="M19.9901 2.32499C19.7426 2.46058 17.5226 4.30503 13.9904 7.30977L11.3426 9.56221L11.0371 9.51324C10.2504 9.38717 9.27456 9.7262 8.6625 10.3383C7.53516 11.4656 7.53745 13.278 8.66758 14.4081C9.80209 15.5426 11.5978 15.5426 12.7323 14.4081C13.3528 13.7876 13.6896 12.8314 13.5638 12.0475L13.5162 11.7511L14.9185 10.1075C18.3843 6.04519 20.5713 3.40951 20.748 3.08179C20.9034 2.79383 20.8891 2.55293 20.7059 2.36976C20.5208 2.18456 20.2745 2.16919 19.9901 2.32499ZM10.1209 3.54009C9.90962 3.7514 9.87437 3.8264 9.87456 4.06406C9.87481 4.39864 10.0494 4.71023 10.3129 4.84646C11.0657 5.23573 11.8522 4.36854 11.3808 3.66902C11.1982 3.39808 10.9969 3.29564 10.6448 3.29449C10.4067 3.29367 10.3325 3.32841 10.1209 3.54009ZM6.81824 4.36574C6.607 4.57705 6.57176 4.65206 6.57195 4.88972C6.5722 5.2243 6.74679 5.53588 7.0103 5.67212C7.76305 6.06138 8.54957 5.19419 8.07819 4.49467C7.89559 4.22373 7.69433 4.12129 7.34222 4.12014C7.10411 4.11932 7.02993 4.15406 6.81824 4.36574ZM13.4235 4.36574C13.2122 4.57705 13.177 4.65206 13.1772 4.88972C13.1774 5.2243 13.352 5.53588 13.6155 5.67212C14.3683 6.06138 15.1548 5.19419 14.6834 4.49467C14.5008 4.22373 14.2995 4.12129 13.9474 4.12014C13.7093 4.11932 13.6352 4.15406 13.4235 4.36574ZM4.34129 6.8427C4.1296 7.05439 4.09486 7.12857 4.09569 7.36667C4.09683 7.71878 4.19927 7.92005 4.47022 8.10265C5.20486 8.59766 6.09624 7.70627 5.60123 6.97163C5.41864 6.70069 5.21737 6.59825 4.86526 6.5971C4.62715 6.59628 4.55297 6.63102 4.34129 6.8427ZM3.51563 10.1453C3.30395 10.357 3.26921 10.4312 3.27003 10.6693C3.27118 11.0214 3.37362 11.2227 3.64456 11.4053C4.3792 11.9003 5.27059 11.0089 4.77558 10.2742C4.59298 10.0033 4.39171 9.90086 4.03961 9.89971C3.8015 9.89889 3.72732 9.93363 3.51563 10.1453ZM16.7261 10.1453C16.5144 10.357 16.4797 10.4312 16.4805 10.6693C16.4816 11.0214 16.5841 11.2227 16.855 11.4053C17.5896 11.9003 18.481 11.0089 17.986 10.2742C17.8034 10.0033 17.6022 9.90086 17.25 9.89971C17.0119 9.89889 16.9378 9.93363 16.7261 10.1453Z" fill="#5D5A6A"/>
</svg>
