<svg width="24" height="24" viewBox="0 0 24 24" fill="none" xmlns="http://www.w3.org/2000/svg">
<path d="M18.0001 9.16C17.9401 9.15 17.8701 9.15 17.8101 9.16C16.4301 9.11 15.3301 7.98 15.3301 6.58C15.3301 5.15 16.4801 4 17.9101 4C19.3401 4 20.4901 5.16 20.4901 6.58C20.4801 7.98 19.3801 9.11 18.0001 9.16Z" stroke="#292D32" stroke-width="1.5" stroke-linecap="round" stroke-linejoin="round"/>
<path d="M16.9702 16.4402C18.3402 16.6702 19.8502 16.4302 20.9102 15.7202C22.3202 14.7802 22.3202 13.2402 20.9102 12.3002C19.8402 11.5902 18.3102 11.3502 16.9402 11.5902" stroke="#292D32" stroke-width="1.5" stroke-linecap="round" stroke-linejoin="round"/>
<path d="M5.96998 9.16C6.02998 9.15 6.09998 9.15 6.15998 9.16C7.53998 9.11 8.63998 7.98 8.63998 6.58C8.63998 5.15 7.48998 4 6.05998 4C4.62998 4 3.47998 5.16 3.47998 6.58C3.48998 7.98 4.58998 9.11 5.96998 9.16Z" stroke="#292D32" stroke-width="1.5" stroke-linecap="round" stroke-linejoin="round"/>
<path d="M6.99994 16.4402C5.62994 16.6702 4.11994 16.4302 3.05994 15.7202C1.64994 14.7802 1.64994 13.2402 3.05994 12.3002C4.12994 11.5902 5.65994 11.3502 7.02994 11.5902" stroke="#292D32" stroke-width="1.5" stroke-linecap="round" stroke-linejoin="round"/>
<path d="M12.0001 14.6302C11.9401 14.6202 11.8701 14.6202 11.8101 14.6302C10.4301 14.5802 9.33008 13.4502 9.33008 12.0502C9.33008 10.6202 10.4801 9.47021 11.9101 9.47021C13.3401 9.47021 14.4901 10.6302 14.4901 12.0502C14.4801 13.4502 13.3801 14.5902 12.0001 14.6302Z" stroke="#292D32" stroke-width="1.5" stroke-linecap="round" stroke-linejoin="round"/>
<path d="M9.08997 17.7804C7.67997 18.7204 7.67997 20.2603 9.08997 21.2003C10.69 22.2703 13.31 22.2703 14.91 21.2003C16.32 20.2603 16.32 18.7204 14.91 17.7804C13.32 16.7204 10.69 16.7204 9.08997 17.7804Z" stroke="#292D32" stroke-width="1.5" stroke-linecap="round" stroke-linejoin="round"/>
</svg>
